<svg width="134.000000" height="12.000000" viewBox="0 0 134 12" fill="none" xmlns="http://www.w3.org/2000/svg" xmlns:xlink="http://www.w3.org/1999/xlink">
	<desc>
			Created with Pixso.
	</desc>
	<defs>
		<clipPath id="clip728_165">
			<rect id="ITD logo 1" width="134.000000" height="12.000000" fill="white" fill-opacity="0"/>
		</clipPath>
	</defs>
	<mask id="mask728_165" mask-type="alpha" maskUnits="userSpaceOnUse" x="0.000000" y="0.000000" width="134.000000" height="12.000000">
		<rect id="ITD logo 1" width="134.000000" height="12.000000" fill="#FFFFFF" fill-opacity="0"/>
		<g clip-path="url(#clip728_165)">
			<path id="Vector" d="M0.02 9.41L0.02 2.73L2.52 2.73L2.52 9.41L0.02 9.41ZM0 1.97L0 0.09L2.55 0.09L2.55 1.97L0 1.97ZM11.96 7.08C11.93 7.26 11.88 7.45 11.81 7.65C11.74 7.85 11.65 8.04 11.54 8.23C11.42 8.42 11.28 8.6 11.1 8.77C10.93 8.94 10.73 9.09 10.49 9.22C10.25 9.34 9.98 9.45 9.67 9.52C9.36 9.6 9.01 9.64 8.62 9.64C8.05 9.64 7.55 9.57 7.14 9.44C6.72 9.3 6.39 9.11 6.12 8.84C5.86 8.58 5.66 8.25 5.54 7.85C5.41 7.45 5.35 6.99 5.35 6.47L5.35 3.89L3.67 3.89L3.67 2.73L4.96 2.73C5.29 2.73 5.51 2.66 5.64 2.52C5.76 2.37 5.82 2.16 5.82 1.88L5.82 0.62L7.85 0.62L7.85 2.73L10.84 2.73L10.84 3.89L7.85 3.89L7.85 6.57C7.85 6.84 7.88 7.07 7.93 7.25C7.99 7.43 8.07 7.57 8.17 7.68C8.28 7.78 8.4 7.86 8.55 7.9C8.71 7.95 8.88 7.97 9.07 7.97C9.27 7.97 9.44 7.93 9.59 7.84C9.74 7.76 9.86 7.65 9.96 7.53C10.06 7.39 10.14 7.25 10.2 7.09C10.27 6.92 10.31 6.76 10.34 6.59L11.96 7.08L11.96 7.08ZM20.82 9.41L20.49 7.94C20.34 8.18 20.15 8.41 19.92 8.62C19.68 8.82 19.41 9 19.1 9.15C18.78 9.31 18.43 9.42 18.04 9.51C17.65 9.59 17.22 9.64 16.76 9.64C16.17 9.64 15.61 9.55 15.1 9.37C14.58 9.19 14.13 8.94 13.76 8.63C13.38 8.31 13.08 7.93 12.86 7.5C12.64 7.06 12.53 6.58 12.53 6.06C12.53 5.54 12.64 5.06 12.85 4.62C13.07 4.18 13.37 3.8 13.76 3.49C14.14 3.17 14.6 2.93 15.13 2.75C15.67 2.58 16.24 2.49 16.87 2.49C17.31 2.49 17.71 2.53 18.08 2.62C18.44 2.7 18.77 2.81 19.05 2.95C19.33 3.09 19.58 3.25 19.78 3.43C19.98 3.61 20.14 3.8 20.26 3.99L20.26 0L22.76 0L22.76 9.41L20.82 9.41ZM20.26 6.08C20.26 5.79 20.19 5.53 20.06 5.3C19.92 5.06 19.74 4.86 19.51 4.69C19.27 4.53 19 4.4 18.69 4.31C18.38 4.22 18.05 4.17 17.7 4.17C17.33 4.17 16.99 4.21 16.67 4.3C16.36 4.39 16.08 4.51 15.85 4.67C15.62 4.84 15.44 5.04 15.31 5.27C15.18 5.5 15.12 5.77 15.12 6.06C15.12 6.37 15.18 6.64 15.32 6.88C15.45 7.11 15.63 7.31 15.86 7.47C16.09 7.63 16.36 7.76 16.68 7.84C16.99 7.92 17.33 7.96 17.69 7.96C18.06 7.96 18.41 7.91 18.72 7.82C19.03 7.73 19.3 7.6 19.53 7.44C19.76 7.28 19.94 7.08 20.07 6.85C20.19 6.62 20.26 6.36 20.26 6.08L20.26 6.08ZM32.13 7.08C32.15 7.08 32.16 7.08 32.18 7.08C32.19 7.08 32.2 7.08 32.22 7.08L33.86 7.84C33.58 8.17 33.28 8.44 32.96 8.67C32.64 8.9 32.3 9.08 31.94 9.23C31.58 9.37 31.21 9.47 30.81 9.54C30.42 9.6 30.02 9.64 29.6 9.64C28.8 9.64 28.07 9.55 27.43 9.39C26.78 9.23 26.23 9 25.78 8.69C25.32 8.38 24.97 8.01 24.73 7.58C24.49 7.14 24.37 6.65 24.37 6.1C24.37 5.56 24.48 5.07 24.71 4.62C24.93 4.18 25.26 3.8 25.69 3.48C26.12 3.17 26.64 2.92 27.26 2.75C27.88 2.58 28.58 2.49 29.36 2.49C30.08 2.49 30.73 2.58 31.31 2.77C31.88 2.96 32.37 3.22 32.78 3.55C33.18 3.89 33.49 4.28 33.71 4.74C33.92 5.19 34.03 5.69 34.03 6.22C34.03 6.26 34.03 6.29 34.03 6.33C34.03 6.36 34.03 6.4 34.03 6.44L26.64 6.44C26.66 6.68 26.76 6.91 26.91 7.12C27.07 7.33 27.28 7.51 27.53 7.66C27.79 7.82 28.1 7.94 28.44 8.02C28.79 8.11 29.17 8.16 29.57 8.16C29.85 8.16 30.11 8.14 30.36 8.1C30.62 8.06 30.86 8 31.07 7.91C31.29 7.82 31.49 7.71 31.67 7.57C31.85 7.44 32 7.27 32.13 7.08L32.13 7.08ZM31.65 5.38C31.63 5.19 31.57 5 31.46 4.81C31.36 4.63 31.21 4.46 31.01 4.32C30.81 4.17 30.57 4.05 30.28 3.96C29.99 3.87 29.66 3.82 29.27 3.82C28.9 3.82 28.56 3.86 28.26 3.95C27.96 4.03 27.69 4.14 27.47 4.29C27.24 4.43 27.06 4.6 26.92 4.78C26.78 4.97 26.69 5.17 26.66 5.38L31.65 5.38L31.65 5.38ZM38.85 6.66C38.63 6.64 38.38 6.62 38.1 6.59C37.83 6.57 37.56 6.53 37.28 6.47C37 6.42 36.73 6.35 36.46 6.26C36.2 6.17 35.96 6.06 35.76 5.91C35.55 5.77 35.39 5.58 35.26 5.37C35.14 5.15 35.08 4.89 35.08 4.58C35.08 3.91 35.42 3.4 36.1 3.03C36.79 2.67 37.81 2.49 39.17 2.49C39.62 2.49 40.05 2.51 40.46 2.56C40.87 2.61 41.25 2.7 41.61 2.83C41.97 2.96 42.3 3.14 42.62 3.36C42.93 3.59 43.22 3.88 43.48 4.23L41.49 4.77C41.37 4.63 41.24 4.5 41.09 4.39C40.95 4.28 40.79 4.19 40.6 4.11C40.42 4.03 40.2 3.97 39.96 3.93C39.71 3.9 39.43 3.88 39.1 3.88C38.8 3.88 38.55 3.9 38.34 3.94C38.13 3.98 37.96 4.03 37.83 4.1C37.7 4.16 37.6 4.24 37.54 4.32C37.48 4.41 37.45 4.49 37.45 4.58C37.45 4.71 37.5 4.81 37.59 4.89C37.69 4.97 37.83 5.03 38.02 5.09C38.21 5.14 38.45 5.18 38.73 5.21C39.01 5.24 39.33 5.28 39.7 5.32C40.37 5.39 40.95 5.48 41.44 5.57C41.94 5.66 42.35 5.79 42.68 5.94C43 6.09 43.25 6.28 43.41 6.5C43.57 6.73 43.65 7.01 43.65 7.35C43.65 7.73 43.55 8.07 43.35 8.35C43.15 8.63 42.86 8.87 42.47 9.06C42.09 9.25 41.61 9.4 41.05 9.49C40.48 9.59 39.83 9.64 39.1 9.64C38.59 9.64 38.11 9.6 37.66 9.54C37.22 9.47 36.82 9.36 36.45 9.22C36.09 9.08 35.76 8.89 35.49 8.67C35.21 8.44 34.99 8.16 34.82 7.84L36.75 7.23C36.84 7.34 36.95 7.46 37.09 7.58C37.22 7.7 37.39 7.8 37.59 7.89C37.79 7.99 38.02 8.06 38.29 8.12C38.57 8.18 38.89 8.21 39.25 8.21C39.62 8.21 39.93 8.19 40.18 8.16C40.43 8.12 40.63 8.07 40.79 8.01C40.94 7.94 41.05 7.86 41.12 7.77C41.19 7.68 41.22 7.57 41.22 7.45C41.22 7.35 41.18 7.26 41.09 7.18C41.01 7.11 40.87 7.04 40.69 6.98C40.5 6.92 40.25 6.86 39.95 6.81C39.65 6.76 39.29 6.71 38.85 6.66L38.85 6.66ZM45.48 9.41L45.48 2.73L47.98 2.73L47.98 9.41L45.48 9.41ZM45.45 1.97L45.45 0.09L48 0.09L48 1.97L45.45 1.97ZM59.01 4.67C59.01 5.03 58.92 5.34 58.74 5.62C58.55 5.89 58.29 6.13 57.94 6.32C57.58 6.51 57.15 6.65 56.64 6.75C56.13 6.85 55.55 6.9 54.9 6.9C54.75 6.9 54.56 6.9 54.35 6.91C54.14 6.91 53.92 6.92 53.69 6.93C53.46 6.94 53.23 6.96 53 6.98C52.78 7.01 52.58 7.04 52.4 7.08C52.22 7.12 52.08 7.17 51.97 7.23C51.85 7.3 51.8 7.37 51.8 7.46C51.8 7.6 51.87 7.71 52.02 7.78C52.16 7.84 52.39 7.87 52.72 7.86L55.84 7.84C56.54 7.82 57.12 7.85 57.59 7.92C58.06 7.99 58.44 8.1 58.73 8.25C59.02 8.4 59.22 8.59 59.34 8.81C59.47 9.04 59.53 9.3 59.53 9.59C59.53 9.92 59.46 10.2 59.32 10.45C59.18 10.7 58.99 10.91 58.75 11.08C58.51 11.26 58.23 11.41 57.91 11.53C57.58 11.64 57.23 11.74 56.86 11.81C56.48 11.88 56.09 11.92 55.69 11.95C55.29 11.98 54.88 12 54.48 12C53.72 12 53.06 11.96 52.5 11.88C51.95 11.8 51.49 11.7 51.14 11.56C50.78 11.42 50.51 11.26 50.34 11.07C50.17 10.88 50.08 10.68 50.08 10.46C50.08 10.34 50.11 10.23 50.15 10.1C50.19 9.98 50.26 9.86 50.36 9.75C50.45 9.64 50.57 9.53 50.71 9.43C50.86 9.34 51.02 9.26 51.22 9.19C50.94 9.13 50.71 9.06 50.53 8.97C50.34 8.88 50.2 8.78 50.1 8.66C49.99 8.54 49.92 8.41 49.88 8.28C49.83 8.14 49.81 8 49.81 7.85C49.81 7.59 49.88 7.38 50.03 7.2C50.17 7.02 50.35 6.88 50.57 6.77C50.79 6.66 51.04 6.58 51.3 6.53C51.58 6.47 51.84 6.44 52.1 6.42C51.65 6.21 51.32 5.95 51.12 5.64C50.91 5.33 50.81 5.01 50.81 4.67C50.81 4.34 50.89 4.03 51.05 3.76C51.21 3.5 51.45 3.27 51.78 3.08C52.1 2.89 52.52 2.74 53.01 2.64C53.51 2.54 54.1 2.49 54.78 2.49C55.1 2.49 55.4 2.5 55.68 2.52C55.96 2.54 56.22 2.56 56.47 2.6C56.57 2.59 56.67 2.57 56.76 2.53C56.85 2.48 56.92 2.43 56.99 2.36C57.06 2.28 57.11 2.2 57.15 2.1C57.19 2 57.21 1.9 57.21 1.78C57.21 1.7 57.2 1.61 57.18 1.5C57.16 1.4 57.13 1.3 57.11 1.2C57.07 1.1 57.05 1.01 57.02 0.93C56.99 0.85 56.97 0.79 56.95 0.76L58.76 0.86C58.77 0.88 58.8 0.92 58.82 0.97C58.85 1.03 58.88 1.09 58.91 1.17C58.94 1.24 58.96 1.33 58.98 1.42C59 1.51 59.01 1.6 59.01 1.7C59.01 1.99 58.9 2.24 58.66 2.46C58.43 2.67 58.09 2.82 57.64 2.89C58.12 3.08 58.46 3.32 58.68 3.61C58.9 3.91 59.01 4.26 59.01 4.67L59.01 4.67ZM52.79 9.3C52.74 9.31 52.69 9.31 52.65 9.3C52.6 9.3 52.55 9.3 52.5 9.3C52.41 9.34 52.34 9.39 52.29 9.45C52.23 9.51 52.19 9.57 52.15 9.64C52.12 9.7 52.1 9.78 52.09 9.85C52.08 9.92 52.07 9.99 52.07 10.06C52.07 10.16 52.11 10.26 52.19 10.34C52.27 10.43 52.41 10.5 52.6 10.55C52.79 10.61 53.05 10.65 53.37 10.68C53.69 10.71 54.09 10.73 54.57 10.73C55.03 10.73 55.41 10.71 55.71 10.66C56.01 10.61 56.25 10.56 56.42 10.48C56.6 10.41 56.72 10.32 56.78 10.22C56.85 10.12 56.88 10.02 56.88 9.91C56.88 9.82 56.86 9.72 56.82 9.64C56.77 9.56 56.69 9.49 56.57 9.43C56.44 9.38 56.27 9.33 56.05 9.3C55.82 9.28 55.54 9.26 55.19 9.27L52.79 9.3L52.79 9.3ZM54.88 5.69C55.17 5.69 55.42 5.66 55.62 5.61C55.83 5.55 56 5.48 56.14 5.39C56.27 5.29 56.37 5.18 56.44 5.06C56.51 4.94 56.54 4.82 56.54 4.69C56.54 4.56 56.51 4.44 56.44 4.32C56.38 4.2 56.28 4.09 56.14 4C56.01 3.91 55.84 3.84 55.63 3.78C55.42 3.73 55.17 3.7 54.88 3.7C54.6 3.7 54.36 3.73 54.15 3.78C53.95 3.84 53.78 3.91 53.65 4C53.52 4.09 53.42 4.2 53.36 4.32C53.3 4.43 53.27 4.56 53.27 4.69C53.27 4.82 53.3 4.94 53.37 5.06C53.43 5.18 53.52 5.29 53.65 5.38C53.78 5.47 53.95 5.55 54.15 5.6C54.36 5.66 54.6 5.69 54.88 5.69ZM68.17 9.41L68.17 6.74C68.17 6.38 68.14 6.04 68.08 5.73C68.02 5.42 67.91 5.16 67.76 4.93C67.6 4.7 67.39 4.52 67.12 4.39C66.85 4.26 66.51 4.2 66.1 4.2C65.8 4.2 65.5 4.25 65.2 4.37C64.9 4.48 64.62 4.65 64.38 4.87C64.13 5.09 63.94 5.35 63.78 5.66C63.63 5.98 63.56 6.33 63.56 6.72L63.56 9.41L61.06 9.41L61.06 2.73L62.78 2.73L63.16 4.67C63.34 4.3 63.57 3.98 63.85 3.71C64.13 3.43 64.44 3.21 64.78 3.03C65.12 2.85 65.48 2.71 65.87 2.62C66.25 2.53 66.64 2.49 67.03 2.49C67.68 2.49 68.23 2.58 68.7 2.76C69.15 2.93 69.53 3.19 69.83 3.53C70.12 3.87 70.33 4.28 70.47 4.78C70.6 5.27 70.67 5.83 70.67 6.45L70.67 9.41L68.17 9.41L68.17 9.41ZM72.78 9.41L72.78 7.22L75.28 7.22L75.28 9.41L72.78 9.41ZM80.68 6.66C80.46 6.64 80.21 6.62 79.93 6.59C79.66 6.57 79.39 6.53 79.11 6.47C78.83 6.42 78.56 6.35 78.29 6.26C78.03 6.17 77.79 6.06 77.59 5.91C77.38 5.77 77.22 5.58 77.09 5.37C76.97 5.15 76.91 4.89 76.91 4.58C76.91 3.91 77.25 3.4 77.93 3.03C78.62 2.67 79.64 2.49 81 2.49C81.45 2.49 81.88 2.51 82.29 2.56C82.7 2.61 83.08 2.7 83.44 2.83C83.8 2.96 84.13 3.14 84.45 3.36C84.76 3.59 85.05 3.88 85.31 4.23L83.33 4.77C83.2 4.63 83.07 4.5 82.93 4.39C82.78 4.28 82.62 4.19 82.43 4.11C82.25 4.03 82.03 3.97 81.79 3.93C81.54 3.9 81.26 3.88 80.93 3.88C80.63 3.88 80.38 3.9 80.17 3.94C79.96 3.98 79.79 4.03 79.66 4.1C79.53 4.16 79.43 4.24 79.37 4.32C79.31 4.41 79.28 4.49 79.28 4.58C79.28 4.71 79.33 4.81 79.42 4.89C79.52 4.97 79.66 5.03 79.85 5.09C80.04 5.14 80.28 5.18 80.56 5.21C80.84 5.24 81.16 5.28 81.53 5.32C82.2 5.39 82.78 5.48 83.27 5.57C83.77 5.66 84.18 5.79 84.51 5.94C84.83 6.09 85.08 6.28 85.24 6.5C85.4 6.73 85.48 7.01 85.48 7.35C85.48 7.73 85.38 8.07 85.18 8.35C84.98 8.63 84.69 8.87 84.3 9.06C83.92 9.25 83.44 9.4 82.88 9.49C82.31 9.59 81.66 9.64 80.93 9.64C80.42 9.64 79.94 9.6 79.49 9.54C79.05 9.47 78.65 9.36 78.28 9.22C77.92 9.08 77.59 8.89 77.32 8.67C77.04 8.44 76.82 8.16 76.65 7.84L78.58 7.23C78.67 7.34 78.78 7.46 78.92 7.58C79.05 7.7 79.22 7.8 79.42 7.89C79.62 7.99 79.85 8.06 80.13 8.12C80.4 8.18 80.72 8.21 81.08 8.21C81.45 8.21 81.76 8.19 82.01 8.16C82.26 8.12 82.46 8.07 82.62 8.01C82.77 7.94 82.88 7.86 82.95 7.77C83.02 7.68 83.05 7.57 83.05 7.45C83.05 7.35 83.01 7.26 82.92 7.18C82.84 7.11 82.7 7.04 82.52 6.98C82.33 6.92 82.08 6.86 81.78 6.81C81.48 6.76 81.12 6.71 80.68 6.66L80.68 6.66ZM94.26 7.08C94.23 7.26 94.18 7.45 94.11 7.65C94.05 7.85 93.96 8.04 93.84 8.23C93.72 8.42 93.58 8.6 93.41 8.77C93.23 8.94 93.03 9.09 92.79 9.22C92.56 9.34 92.28 9.45 91.97 9.52C91.66 9.6 91.31 9.64 90.92 9.64C90.35 9.64 89.85 9.57 89.44 9.44C89.02 9.3 88.69 9.11 88.42 8.84C88.16 8.58 87.96 8.25 87.84 7.85C87.71 7.45 87.65 6.99 87.65 6.47L87.65 3.89L85.97 3.89L85.97 2.73L87.27 2.73C87.59 2.73 87.81 2.66 87.94 2.52C88.06 2.38 88.12 2.16 88.12 1.88L88.12 0.62L90.15 0.62L90.15 2.73L93.14 2.73L93.14 3.89L90.15 3.89L90.15 6.57C90.15 6.84 90.18 7.07 90.23 7.25C90.29 7.43 90.37 7.57 90.47 7.68C90.58 7.78 90.71 7.86 90.86 7.9C91.01 7.95 91.18 7.97 91.37 7.97C91.57 7.97 91.74 7.93 91.89 7.84C92.04 7.76 92.16 7.65 92.27 7.53C92.36 7.4 92.45 7.25 92.51 7.09C92.57 6.92 92.61 6.76 92.64 6.59L94.26 7.08L94.26 7.08ZM98.26 2.73L98.26 5.53C98.26 5.84 98.29 6.14 98.34 6.43C98.4 6.72 98.5 6.98 98.65 7.2C98.81 7.43 99.01 7.61 99.28 7.74C99.54 7.88 99.88 7.94 100.29 7.94C100.6 7.94 100.9 7.89 101.21 7.77C101.51 7.66 101.79 7.49 102.04 7.27C102.28 7.06 102.48 6.78 102.64 6.45C102.8 6.12 102.87 5.75 102.87 5.32L102.87 2.73L105.37 2.73L105.37 9.41L103.65 9.41L103.28 7.48C103.11 7.83 102.88 8.14 102.6 8.41C102.32 8.68 102.01 8.91 101.66 9.09C101.31 9.28 100.95 9.42 100.55 9.51C100.16 9.6 99.77 9.65 99.38 9.65C98.73 9.65 98.17 9.56 97.71 9.38C97.26 9.2 96.88 8.94 96.59 8.61C96.3 8.27 96.09 7.86 95.96 7.38C95.83 6.9 95.76 6.36 95.76 5.75L95.76 2.73L98.26 2.73L98.26 2.73ZM115.14 9.41L114.8 7.94C114.66 8.18 114.47 8.41 114.23 8.62C114 8.82 113.72 9 113.41 9.15C113.09 9.31 112.74 9.42 112.35 9.51C111.96 9.59 111.53 9.64 111.07 9.64C110.48 9.64 109.92 9.55 109.41 9.37C108.9 9.19 108.45 8.94 108.07 8.63C107.69 8.31 107.39 7.93 107.17 7.5C106.95 7.06 106.84 6.58 106.84 6.06C106.84 5.54 106.95 5.06 107.17 4.62C107.38 4.18 107.69 3.8 108.07 3.49C108.46 3.17 108.92 2.93 109.45 2.75C109.98 2.58 110.55 2.49 111.18 2.49C111.62 2.49 112.02 2.53 112.39 2.62C112.75 2.7 113.08 2.81 113.36 2.95C113.65 3.09 113.89 3.25 114.09 3.43C114.29 3.61 114.45 3.8 114.57 3.99L114.57 0L117.07 0L117.07 9.41L115.14 9.41ZM114.57 6.08C114.57 5.79 114.5 5.53 114.37 5.3C114.23 5.06 114.05 4.86 113.82 4.69C113.59 4.53 113.31 4.4 113 4.31C112.69 4.22 112.37 4.17 112.02 4.17C111.64 4.17 111.3 4.21 110.99 4.3C110.67 4.39 110.39 4.51 110.16 4.67C109.94 4.84 109.75 5.04 109.62 5.27C109.49 5.5 109.43 5.77 109.43 6.06C109.43 6.37 109.49 6.64 109.63 6.88C109.76 7.11 109.94 7.31 110.17 7.47C110.4 7.63 110.67 7.76 110.99 7.84C111.3 7.92 111.64 7.96 112 7.96C112.38 7.96 112.72 7.91 113.03 7.82C113.35 7.73 113.62 7.6 113.84 7.44C114.07 7.28 114.25 7.08 114.38 6.85C114.51 6.62 114.57 6.36 114.57 6.08L114.57 6.08ZM119.62 9.41L119.62 2.73L122.12 2.73L122.12 9.41L119.62 9.41ZM119.59 1.97L119.59 0.09L122.14 0.09L122.14 1.97L119.59 1.97ZM128.82 9.64C128.39 9.64 127.96 9.6 127.53 9.54C127.1 9.48 126.7 9.38 126.32 9.25C125.93 9.12 125.58 8.96 125.26 8.76C124.93 8.57 124.65 8.34 124.42 8.07C124.18 7.81 123.99 7.51 123.86 7.17C123.72 6.84 123.65 6.47 123.65 6.06C123.65 5.66 123.72 5.29 123.86 4.96C123.99 4.62 124.18 4.32 124.42 4.06C124.65 3.79 124.93 3.56 125.26 3.36C125.59 3.17 125.94 3 126.33 2.88C126.71 2.75 127.11 2.65 127.54 2.59C127.96 2.52 128.39 2.49 128.82 2.49C129.26 2.49 129.69 2.52 130.11 2.59C130.54 2.65 130.94 2.75 131.33 2.88C131.71 3.01 132.06 3.17 132.39 3.37C132.72 3.56 133 3.79 133.24 4.06C133.47 4.32 133.66 4.62 133.79 4.95C133.93 5.28 134 5.65 134 6.05C134 6.46 133.93 6.83 133.8 7.16C133.66 7.5 133.48 7.8 133.24 8.06C133 8.33 132.72 8.56 132.4 8.76C132.07 8.96 131.72 9.12 131.33 9.25C130.95 9.38 130.55 9.47 130.12 9.54C129.69 9.6 129.26 9.64 128.82 9.64L128.82 9.64ZM128.82 7.95C129.18 7.95 129.52 7.91 129.83 7.83C130.14 7.75 130.42 7.63 130.65 7.47C130.89 7.31 131.07 7.11 131.21 6.88C131.34 6.64 131.41 6.37 131.41 6.06C131.41 5.76 131.34 5.48 131.21 5.25C131.07 5.02 130.89 4.82 130.65 4.66C130.42 4.5 130.15 4.37 129.83 4.29C129.52 4.21 129.18 4.17 128.82 4.17C128.47 4.17 128.13 4.21 127.82 4.3C127.5 4.38 127.22 4.5 126.99 4.66C126.76 4.82 126.57 5.02 126.44 5.26C126.31 5.49 126.24 5.76 126.24 6.06C126.24 6.37 126.31 6.64 126.44 6.87C126.57 7.11 126.76 7.31 126.99 7.47C127.22 7.63 127.5 7.75 127.82 7.83C128.13 7.91 128.47 7.95 128.82 7.95L128.82 7.95Z" fill="#000000" fill-opacity="1.000000" fill-rule="nonzero"/>
		</g>
	</mask>
	<g mask="url(#mask728_165)">
		<rect id="Rectangle 15" width="134.000000" height="12.000000" fill="#FFFFFF" fill-opacity="1.000000"/>
	</g>
</svg>
