
<svg width="64.000000" height="64.000000" viewBox="0 0 64 64" fill="none" xmlns="http://www.w3.org/2000/svg" xmlns:xlink="http://www.w3.org/1999/xlink">
	
	<defs/>
	<rect id="Duotone/PhoneCall" width="32.000000" height="32.000000" transform="translate(16.000000 16.000000)" fill="#FFFFFF" fill-opacity="0"/>
	<g opacity="0.200000">
		<path id="Vector" d="M27.55 31.6C28.59 33.72 30.31 35.43 32.44 36.46C32.59 36.53 32.76 36.56 32.94 36.55C33.11 36.54 33.27 36.48 33.41 36.38L36.54 34.3C36.68 34.2 36.84 34.15 37.01 34.13C37.17 34.12 37.34 34.14 37.49 34.21L43.35 36.72C43.55 36.8 43.71 36.95 43.82 37.14C43.93 37.32 43.97 37.54 43.95 37.75C43.76 39.2 43.06 40.53 41.96 41.5C40.86 42.46 39.45 43 38 43C33.49 43 29.16 41.2 25.97 38.02C22.79 34.83 21 30.5 21 26C21 24.54 21.53 23.13 22.49 22.03C23.46 20.93 24.79 20.23 26.24 20.04C26.45 20.02 26.67 20.06 26.85 20.17C27.04 20.28 27.19 20.44 27.27 20.64L29.78 26.5C29.85 26.65 29.88 26.82 29.86 26.98C29.85 27.15 29.79 27.31 29.7 27.44L27.62 30.62C27.53 30.76 27.47 30.93 27.46 31.1C27.45 31.27 27.48 31.44 27.55 31.6Z" fill="#FFFFFF" fill-opacity="1.000000" fill-rule="nonzero"/>
	</g>
	<path id="Vector" d="M32.44 36.46C32.59 36.53 32.76 36.56 32.94 36.55C33.11 36.54 33.27 36.48 33.41 36.38L36.54 34.3C36.68 34.2 36.84 34.15 37.01 34.13C37.17 34.12 37.34 34.14 37.49 34.21L43.35 36.72C43.55 36.8 43.71 36.95 43.82 37.14C43.93 37.32 43.97 37.54 43.95 37.75C43.76 39.2 43.06 40.53 41.96 41.5C40.86 42.46 39.45 43 38 43C33.49 43 29.16 41.2 25.97 38.02C22.79 34.83 21 30.5 21 26C21 24.54 21.53 23.13 22.49 22.03C23.46 20.93 24.79 20.23 26.24 20.04C26.45 20.02 26.67 20.06 26.85 20.17C27.04 20.28 27.19 20.44 27.27 20.64L29.78 26.5C29.85 26.65 29.88 26.82 29.86 26.98C29.85 27.15 29.79 27.31 29.7 27.44L27.62 30.62C27.53 30.76 27.47 30.93 27.46 31.1C27.45 31.27 27.48 31.44 27.55 31.6C28.59 33.72 30.31 35.43 32.44 36.46Z" stroke="#00AFEF" stroke-opacity="1.000000" stroke-width="2.000000" stroke-linejoin="round"/>
</svg>
