<svg width="21.000000" height="21.000000" viewBox="0 0 21 21" fill="none" xmlns="http://www.w3.org/2000/svg" xmlns:xlink="http://www.w3.org/1999/xlink">
	<defs/>
	<path id="Vector" d="M17.92 3.06C15.95 1.09 13.31 0 10.53 0C4.75 0 0.07 4.66 0.07 10.42C0.07 12.25 0.58 14.07 1.46 15.6L0 21L5.56 19.54C7.09 20.34 8.78 20.78 10.53 20.78C16.31 20.78 21 16.11 21 10.35C20.92 7.65 19.9 5.03 17.92 3.06ZM15.58 14.14C15.36 14.72 14.34 15.31 13.82 15.38C13.39 15.45 12.8 15.45 12.21 15.31C11.85 15.16 11.34 15.02 10.75 14.72C8.12 13.63 6.43 11.01 6.29 10.79C6.14 10.64 5.19 9.4 5.19 8.09C5.19 6.78 5.85 6.19 6.07 5.9C6.29 5.61 6.58 5.61 6.8 5.61C6.95 5.61 7.17 5.61 7.31 5.61C7.46 5.61 7.68 5.54 7.9 6.05C8.12 6.56 8.63 7.87 8.7 7.94C8.78 8.09 8.78 8.23 8.7 8.38C8.63 8.53 8.56 8.67 8.41 8.82C8.26 8.96 8.12 9.18 8.04 9.26C7.9 9.4 7.75 9.55 7.9 9.77C8.04 10.06 8.56 10.86 9.36 11.59C10.39 12.46 11.19 12.76 11.48 12.9C11.78 13.05 11.92 12.97 12.07 12.83C12.21 12.68 12.73 12.1 12.87 11.81C13.02 11.52 13.24 11.59 13.46 11.66C13.68 11.73 15 12.39 15.21 12.54C15.51 12.68 15.65 12.76 15.73 12.83C15.8 13.05 15.8 13.56 15.58 14.14Z" fill="#FFFFFF" fill-opacity="1.000000" fill-rule="evenodd"/>
</svg>
